<svg version="1.1" viewBox="340 100 150 90" width="400" height="200" baseProfile="full" xmlns="http://www.w3.org/2000/svg">
  <path stroke="black" stroke-width="2" fill="cyan" d="M 374.600012 135 A 3.9 3.9 0 0 1 370.700012 138.9 A 3.9 3.9 0 0 1 366.800012 135 A 3.9 3.9 0 0 1 370.700012 131.1 A 3.9 3.9 0 0 1 374.600012 135 Z"></path>
  <path stroke="black" stroke-width="2" fill="pink" d="M405.6,180.5c23.9,0,45.7-11.7,57.9-30.9l18.6,13.1c0.7,0.5,1.5,0.8,2.4,0.8c0.9,0,1.8-0.3,2.5-0.9 c1.4-1.1,2-3,1.3-4.7l-5.4-13.9l5.4-13.9c0.7-1.7,0.1-3.6-1.3-4.7c-1.4-1.1-3.4-1.2-4.9-0.1l-18.5,13 c-12.2-19.3-34.1-31.1-58.1-31.1c-25.5,0-48.6,13.4-60.3,34.9l-1,1.8l1,1.8C357,167.1,380.1,180.5,405.6,180.5z M477,138.2 l-2.2,5.8l2.2,5.8l-8.2-5.8L477,138.2z M405.6,114.7c22,0,41.9,11.1,52.5,29.1c-10.6,18-30.5,29.1-52.5,29.1 c-7.5,0-14.7-1.3-21.4-3.7c4-5.4,10.1-15.4,10.1-25.4s-6.1-20-10.1-25.4C390.9,116,398.2,114.7,405.6,114.7z M354.6,141.5 c2,1.8,5,3.9,8.8,4.7l1.1-4.7c-3-0.7-5.5-2.5-7-4c5.3-6.7,12-12.2,19.6-16.1c3.8,4.8,9.7,14.1,9.7,22.3c0,8.7-6.5,18.1-9.7,22.2 c-9.8-5-18.1-12.7-23.8-22.2C353.6,143,354.1,142.3,354.6,141.5z"></path>
</svg>